<svg
  className="github-logo"
  xmlns="http://www.w3.org/2000/svg"
  viewBox="0 0 16 16"
  fill="white"
  width="16"
  height="16"
>
  <path
    fill-rule="evenodd"
    d="M8 0C3.58 0 0 3.582 0 8c0 3.535 2.29 6.53 5.47 7.59.4.074.55-.173.55-.384 0-.19-.007-.693-.01-1.357-2.01.348-2.74-.49-2.74-.49-.37-.944-.903-1.194-.903-1.194-.738-.504.055-.495.055-.495.816.057 1.246.84 1.246.84.724 1.236 1.898.88 2.36.672.073-.527.284-.88.517-1.085-1.81-.205-3.715-.905-3.715-4.03 0-.892.318-1.62.84-2.19-.085-.207-.364-1.035.08-2.155 0 0 .685-.22 2.24.834a7.71 7.71 0 012.04-.282 7.7 7.7 0 012.04.282c1.554-1.054 2.24-.834 2.24-.834.445 1.12.166 1.948.08 2.155.524.57.84 1.298.84 2.19 0 3.13-1.91 3.823-3.73 4.024.29.252.54.75.54 1.515 0 1.093-.01 1.97-.01 2.236 0 .21.15.46.55.38 3.18-1.06 5.47-4.055 5.47-7.59 0-4.418-3.58-8-8-8z"
  ></path>
</svg>